<?xml version="1.0" standalone="no"?><!-- Generator: Adobe Fireworks CS6, Export SVG Extension by Aaron Beall (http://fireworks.abeall.com) . Version: 0.6.1  --><!DOCTYPE svg PUBLIC "-//W3C//DTD SVG 1.1//EN" "http://www.w3.org/Graphics/SVG/1.1/DTD/svg11.dtd"><svg id="logo.fw-Page%201" viewBox="0 0 324 34" style="background-color:transparent" version="1.1"	xmlns="http://www.w3.org/2000/svg" xmlns:xlink="http://www.w3.org/1999/xlink" xml:space="preserve"	x="0px" y="0px" width="324px" height="34px">	<g id="Layer%201">		<path d="M 310.0909 3.5645 L 310.0909 26.3226 L 321.2728 26.3226 L 321.2728 30.9839 L 304.3636 30.9839 L 304.3636 3.5645 L 310.0909 3.5645 ZM 288.8182 3.5645 L 288.8182 26.3226 L 300 26.3226 L 300 30.9839 L 283.0909 30.9839 L 283.0909 3.5645 L 288.8182 3.5645 ZM 278.4545 3.5645 L 278.4545 7.9516 L 266.7273 7.9516 L 266.7273 14.8064 L 275.4545 14.8064 L 275.4545 18.6452 L 266.7273 18.6452 L 266.7273 26.5968 L 278.7272 26.5968 L 278.7272 30.9839 L 261 30.9839 L 261 3.5645 L 278.4545 3.5645 ZM 249.8182 3.5645 C 254.7273 4.3871 256.5 6.5806 256.5 10.1452 C 256.5 12.3387 255.9545 13.8468 251.8636 16.0403 C 255.1364 17.9597 257.5909 19.4677 257.5909 23.3065 C 257.5909 29.3387 251.3182 30.9839 247.2273 30.9839 L 237.2727 30.9839 L 237.2727 3.5645 L 249.8182 3.5645 ZM 226.6364 3.5645 C 232.3636 4.3871 234.5455 7.4032 234.5455 11.5161 C 234.5455 19.1935 228 20.1532 220.9091 20.1532 L 220.9091 30.9839 L 215.4545 30.9839 L 215.4545 3.5645 L 226.6364 3.5645 ZM 190.9091 3.5645 L 196.2273 23.0323 C 196.5 23.0323 196.7727 22.4839 196.7727 22.2097 C 198.6818 16.1774 200.3182 9.871 201.9545 3.5645 L 211.0909 3.5645 L 211.0909 30.9839 L 205.6364 30.9839 L 205.6364 9.871 C 205.6232 9.8737 205.2871 9.8807 205.2871 9.8737 C 203.378 16.7286 200.8636 24.129 198.9545 30.9839 L 193.2273 30.9839 L 187.2273 9.871 L 186.8182 9.871 L 186.8182 30.9839 L 181.9091 30.9839 L 181.9091 3.5645 L 190.9091 3.5645 ZM 170.0455 3.2903 L 178.5 30.9839 L 172.7728 30.9839 C 172.2273 29.0645 171.6818 26.871 170.8636 24.6774 L 161.0455 24.6774 C 160.7727 26.5968 160.2273 28.7903 159.6818 30.9839 L 153.9545 30.9839 L 162.4091 3.2903 L 170.0455 3.2903 ZM 153.4091 11.6532 C 151.7727 11.9274 150.1364 12.2016 147.9545 12.75 C 146.8636 10.0081 146.8636 7.2661 143.5909 7.2661 C 138.4091 7.2661 138.9546 14.9436 138.9546 16.8629 C 138.9546 19.879 138.6818 27.0081 143.5909 27.0081 C 146.0455 27.0081 148.2273 24.2661 148.2273 21.25 C 149.8636 21.5242 151.7727 22.0726 153.4091 22.3468 L 153.4091 23.1694 C 151.2272 29.4758 147.9545 31.121 143.5909 31.121 C 134.3182 31.121 132.9545 22.621 132.9545 17.1371 C 132.9545 11.1048 134.5909 2.879 143.5909 2.879 C 147.9545 2.879 152.5909 4.5242 153.4091 11.6532 ZM 104.4545 3.5645 L 113.0455 20.5645 L 113.7273 20.5645 L 113.7273 3.5645 L 118.9091 3.5645 L 118.9091 30.9839 L 113.7273 30.9839 L 104.3182 12.8871 L 103.9091 12.8871 L 103.9091 30.9839 L 98.7273 30.9839 L 98.7273 3.5645 L 104.4545 3.5645 ZM 74.4546 17.2742 C 74.4546 10.9677 76.0909 3.0161 85.0909 3.0161 C 92.1818 3.0161 95.7273 8.7742 95.7273 14.5323 L 95.7273 19.4677 C 95.4545 26.871 90.8182 31.2581 85.0909 31.2581 C 75.2727 31.2581 74.4546 22.2097 74.4546 17.2742 ZM 51.5454 3.5645 L 56.8636 23.0323 C 57.1364 23.0323 57.4091 22.4839 57.4091 22.2097 C 59.3182 16.1774 60.9546 9.871 62.5909 3.5645 L 71.7273 3.5645 L 71.7273 30.9839 L 66.2727 30.9839 L 66.2727 9.871 C 66.2596 9.8737 65.9235 9.8807 65.9235 9.8737 C 64.0143 16.7286 61.5 24.129 59.5909 30.9839 L 53.8636 30.9839 L 47.8636 9.871 L 47.4546 9.871 L 47.4546 30.9839 L 42.5455 30.9839 L 42.5455 3.5645 L 51.5454 3.5645 ZM 38.1818 3.5645 L 38.1818 6.5806 L 34.3636 6.5806 L 34.3636 27.9677 C 34.3701 27.9748 38.1818 27.9673 38.1818 27.972 L 38.1818 30.9839 L 25.0909 30.9839 L 25.0909 27.9677 C 25.0994 27.9677 28.9134 27.9806 28.9091 27.972 L 28.9091 6.5806 L 25.0909 6.5806 L 25.0909 3.5645 L 38.1818 3.5645 ZM 22.2273 6.9919 C 21.4091 8.0887 20.0454 9.1855 18.9546 10.2823 C 15.9546 7.8145 14.8636 6.9919 12.4091 6.9919 C 10.5 6.9919 8.8636 8.0887 8.8636 10.0081 C 8.8636 16.0403 23.3182 12.2016 23.3182 22.8952 C 23.3182 29.4758 17.0454 31.121 13.2273 31.121 C 9.9546 31.121 5.0454 30.0242 2.8636 26.1855 C 3.9545 25.0887 5.3182 23.9919 6.4091 22.8952 C 8.5909 26.4597 11.3182 27.0081 13.5 27.0081 C 15.1364 27.0081 18.1364 26.1855 18.1364 23.7177 C 18.1364 17.1371 3.6818 21.25 3.6818 10.8306 C 3.6818 5.0726 8.5909 2.879 12.9546 2.879 C 15.1364 2.879 20.3182 3.7016 22.2273 6.9919 ZM 0 0 L 0 34 L 324 34 L 324 0 L 0 0 ZM 247.3636 7.6774 L 243 7.6774 L 243 14.5323 L 246.9546 14.5323 C 248.8636 14.5323 250.7727 13.2984 250.7727 11.1048 C 250.7727 9.4597 250.3636 8.2258 247.3636 7.6774 ZM 248.4545 18.6452 L 243 18.6452 L 243 26.5968 L 247.7728 26.5968 C 250.2273 26.5968 251.8636 25.0887 251.8636 22.8952 C 251.8636 21.5242 250.9091 18.6452 248.4545 18.6452 ZM 225 7.6774 L 221.1818 7.6774 L 221.1818 15.9032 L 225.1364 15.9032 C 227.5909 15.9032 228.4091 13.0242 228.4091 11.9274 C 228.4091 10.0081 228 8.5 225 7.6774 ZM 169.7727 20.8387 L 166.2273 7.6774 C 164.8636 11.7903 163.5 16.4516 162.4091 20.8387 L 169.7727 20.8387 ZM 80.4545 17.2742 C 80.4545 18.9194 80.1837 26.7326 85.0909 26.5968 C 90.0455 26.4597 89.7273 17.2742 89.7273 17.2742 C 89.7273 17.2742 90.2273 7.4032 85.0909 7.4032 C 80.4546 7.4032 80.4545 14.5323 80.4545 17.2742 Z" fill="#FF7C45"/>	</g></svg>