<?xml version="1.0" standalone="no"?><!-- Generator: Adobe Fireworks CS6, Export SVG Extension by Aaron Beall (http://fireworks.abeall.com) . Version: 0.6.1  --><!DOCTYPE svg PUBLIC "-//W3C//DTD SVG 1.1//EN" "http://www.w3.org/Graphics/SVG/1.1/DTD/svg11.dtd"><svg id="logo.fw-Page%201" viewBox="0 0 1214 152" style="background-color:#ffffff00" version="1.1"	xmlns="http://www.w3.org/2000/svg" xmlns:xlink="http://www.w3.org/1999/xlink" xml:space="preserve"	x="0px" y="0px" width="1214px" height="152px">	<g id="Layer%201">		<path d="M 1150 26 L 1150 109 L 1191 109 L 1191 126 L 1129 126 L 1129 26 L 1150 26 ZM 1072 26 L 1072 109 L 1113 109 L 1113 126 L 1051 126 L 1051 26 L 1072 26 ZM 1034 26 L 1034 42 L 991 42 L 991 67 L 1023 67 L 1023 81 L 991 81 L 991 110 L 1035 110 L 1035 126 L 970 126 L 970 26 L 1034 26 ZM 929 26 C 947 29 953.5 37 953.5 50 C 953.5 58 951.5 63.5 936.5 71.5 C 948.5 78.5 957.5 84 957.5 98 C 957.5 120 934.5 126 919.5 126 L 883 126 L 883 26 L 929 26 ZM 844 26 C 865 29 873 40 873 55 C 873 83 849 86.5 823 86.5 L 823 126 L 803 126 L 803 26 L 844 26 ZM 713 26 L 732.5 97 C 733.5 97 734.5 95 734.5 94 C 741.5 72 747.5 49 753.5 26 L 787 26 L 787 126 L 767 126 L 767 49 C 766.9519 49.0101 765.7193 49.0355 765.7193 49.0101 C 758.7193 74.0101 749.5 101 742.5 126 L 721.5 126 L 699.5 49 L 698 49 L 698 126 L 680 126 L 680 26 L 713 26 ZM 636.5 25 L 667.5 126 L 646.5 126 C 644.5 119 642.5 111 639.5 103 L 603.5 103 C 602.5 110 600.5 118 598.5 126 L 577.5 126 L 608.5 25 L 636.5 25 ZM 575.5 55.5 C 569.5 56.5 563.5 57.5 555.5 59.5 C 551.5 49.5 551.5 39.5 539.5 39.5 C 520.5 39.5 522.5 67.5 522.5 74.5 C 522.5 85.5 521.5 111.5 539.5 111.5 C 548.5 111.5 556.5 101.5 556.5 90.5 C 562.5 91.5 569.5 93.5 575.5 94.5 L 575.5 97.5 C 567.5 120.5 555.5 126.5 539.5 126.5 C 505.5 126.5 500.5 95.5 500.5 75.5 C 500.5 53.5 506.5 23.5 539.5 23.5 C 555.5 23.5 572.5 29.5 575.5 55.5 ZM 396 26 L 427.5 88 L 430 88 L 430 26 L 449 26 L 449 126 L 430 126 L 395.5 60 L 394 60 L 394 126 L 375 126 L 375 26 L 396 26 ZM 286 76 C 286 53 292 24 325 24 C 351 24 364 45 364 66 L 364 84 C 363 111 346 127 325 127 C 289 127 286 94 286 76 ZM 202 26 L 221.5 97 C 222.5 97 223.5 95 223.5 94 C 230.5 72 236.5 49 242.5 26 L 276 26 L 276 126 L 256 126 L 256 49 C 255.9519 49.0101 254.7193 49.0355 254.7193 49.0101 C 247.7193 74.0101 238.5 101 231.5 126 L 210.5 126 L 188.5 49 L 187 49 L 187 126 L 169 126 L 169 26 L 202 26 ZM 153 26 L 153 37 L 139 37 L 139 115 C 139.0236 115.0257 153 114.9982 153 115.0156 L 153 126 L 105 126 L 105 115 C 105.0313 115 119.0156 115.0469 119 115.0156 L 119 37 L 105 37 L 105 26 L 153 26 ZM 94.5 38.5 C 91.5 42.5 86.5 46.5 82.5 50.5 C 71.5 41.5 67.5 38.5 58.5 38.5 C 51.5 38.5 45.5 42.5 45.5 49.5 C 45.5 71.5 98.5 57.5 98.5 96.5 C 98.5 120.5 75.5 126.5 61.5 126.5 C 49.5 126.5 31.5 122.5 23.5 108.5 C 27.5 104.5 32.5 100.5 36.5 96.5 C 44.5 109.5 54.5 111.5 62.5 111.5 C 68.5 111.5 79.5 108.5 79.5 99.5 C 79.5 75.5 26.5 90.5 26.5 52.5 C 26.5 31.5 44.5 23.5 60.5 23.5 C 68.5 23.5 87.5 26.5 94.5 38.5 ZM 13 13 L 13 139 L 1201 139 L 1201 13 L 13 13 ZM 920 41 L 904 41 L 904 66 L 918.5 66 C 925.5 66 932.5 61.5 932.5 53.5 C 932.5 47.5 931 43 920 41 ZM 924 81 L 904 81 L 904 110 L 921.5 110 C 930.5 110 936.5 104.5 936.5 96.5 C 936.5 91.5 933 81 924 81 ZM 838 41 L 824 41 L 824 71 L 838.5 71 C 847.5 71 850.5 60.5 850.5 56.5 C 850.5 49.5 849 44 838 41 ZM 635.5 89 L 622.5 41 C 617.5 56 612.5 73 608.5 89 L 635.5 89 ZM 308 76 C 308 82 307.0069 110.4952 325 110 C 343.1667 109.5 342 76 342 76 C 342 76 343.8333 40 325 40 C 308.0001 40 308 66 308 76 Z" fill="#ff8039"/>		<rect x="3" y="3" width="1207" height="145" stroke="#ff8039" stroke-width="7" fill="none"/>		<rect x="11" y="50" width="2" height="0" stroke="#000000" stroke-width="1" fill="#353526"/>	</g></svg>