<svg xmlns="http://www.w3.org/2000/svg" width="20" height="20"><rect x="-7.312" y="-.812" clip-rule="evenodd" width="7.875" height="6.773" fill="none"/><path fill="#707172" d="M18.332 5.042c-.612.271-1.271.456-1.964.538.705-.423 1.249-1.093 1.504-1.892-.661.392-1.394.676-2.17.83-.624-.665-1.514-1.08-2.497-1.08-1.889 0-3.42 1.531-3.42 3.419 0 .269.031.529.089.779-2.842-.142-5.361-1.504-7.047-3.573-.295.505-.464 1.093-.464 1.72 0 1.186.604 2.233 1.521 2.846-.56-.018-1.087-.172-1.547-.428l-.002.043c0 1.657 1.179 3.039 2.744 3.352-.288.08-.589.12-.901.12-.22 0-.435-.02-.644-.06.435 1.358 1.698 2.346 3.195 2.374-1.171.917-2.645 1.463-4.247 1.463-.276 0-.548-.016-.815-.047 1.514.971 3.311 1.536 5.241 1.536 6.289 0 9.729-5.211 9.729-9.729l-.01-.441c.669-.483 1.248-1.085 1.705-1.77z"/></svg>