<svg xmlns="http://www.w3.org/2000/svg" width="20" height="20"><rect x="-7.312" y="-.812" clip-rule="evenodd" width="7.875" height="6.773" fill="none"/><path fill="#707172" d="M18.611 5.993c-.077 1.679-1.249 3.977-3.516 6.894-2.344 3.047-4.327 4.571-5.949 4.571-1.004 0-1.855-.928-2.55-2.784l-1.391-5.104c-.515-1.854-1.068-2.783-1.66-2.783-.129 0-.58.272-1.353.812l-.811-1.045c.851-.748 1.69-1.496 2.516-2.244 1.134-.981 1.986-1.497 2.554-1.549 1.341-.129 2.167.788 2.477 2.752.335 2.119.567 3.437.697 3.952.387 1.758.812 2.636 1.277 2.636.36 0 .902-.57 1.625-1.71.722-1.14 1.108-2.007 1.16-2.604.104-.984-.283-1.478-1.16-1.478-.413 0-.838.095-1.276.283.847-2.776 2.466-4.125 4.854-4.048 1.773.053 2.608 1.202 2.506 3.449z"/></svg>