<svg xmlns="http://www.w3.org/2000/svg" width="20" height="20"><rect x="-7.312" y="-.812" clip-rule="evenodd" width="7.875" height="6.773" fill="none"/><rect x="-1.438" y="7.688" clip-rule="evenodd" width="12.125" height="9.75" fill="none"/><path fill-rule="evenodd" clip-rule="evenodd" fill="#707071" d="M19.23 10c0 1.439-.003 2.965-.323 4.364-.227.981-1.03 1.706-1.997 1.813-2.289.255-4.605.258-6.912.255-2.307.003-4.623 0-6.912-.255-.967-.107-1.771-.832-1.996-1.813-.32-1.398-.32-2.925-.32-4.364 0-1.44.003-2.965.325-4.365.225-.98 1.027-1.704 1.994-1.812 2.289-.256 4.607-.257 6.914-.256 2.305 0 4.623 0 6.912.256.966.108 1.769.832 1.996 1.812.32 1.4.319 2.926.319 4.365zm-11.468 2.646l5.288-2.646-5.288-2.644v5.29z"/></svg>